<?xml version="1.0" encoding="utf-8"?>
<!-- Uploaded to: SVG Repo, www.svgrepo.com, Generator: SVG Repo Mixer Tools -->
<svg width="800px" height="800px" viewBox="0 0 1024 1024" fill="#000000" class="icon"  version="1.1" xmlns="http://www.w3.org/2000/svg"><path d="M640 469.333333a85.333333 85.333333 0 1 1-170.709333-0.042666A85.333333 85.333333 0 0 1 640 469.333333z m123.733333 469.333334c-217.6 0-332.8-170.666667-516.266666-170.666667C72.533333 768 0 938.666667 0 938.666667s51.2-85.333333 243.2-85.333334c179.2 0 273.066667 170.666667 512 170.666667 179.2 0 268.8-170.666667 268.8-170.666667s-106.666667 85.333333-260.266667 85.333334z m-68.266666-68.266667C537.6 819.2 405.333333 682.666667 213.333333 682.666667c0 0 17.066667-93.866667 119.466667-174.933334C341.333333 503.466667 384 332.8 384 332.8l0.896 0.085333a42.581333 42.581333 0 0 1 22.698667-29.738666l138.453333-69.248A147.541333 147.541333 0 0 1 503.466667 196.266667c-34.133333-46.933333-72.533333-128-72.533334-128L571.733333 0s42.666667 64 55.466667 123.733333c9.770667 35.712 14.421333 78.677333 1.109333 102.912l1.066667 2.56c2.090667 2.517333 4.48 4.693333 6.101333 7.722667 2.346667 4.693333 3.413333 9.642667 3.925334 14.549333l136.32 304a42.026667 42.026667 0 0 1 27.690666 18.176 42.496 42.496 0 0 1 0.896 45.44l27.306667 60.885334c9.258667 3.157333 19.712 7.978667 30.250667 15.445333 25.6 21.333333 76.8 89.642667 89.6 140.8-21.333333 34.176-93.866667 59.733333-128 59.733333-62.336-118.698667-48.256-179.541333-33.92-205.568l-19.370667-43.264-106.496 70.997334a42.538667 42.538667 0 0 1-42.752 2.730666l-122.794667-61.354666c-8.746667 14.677333-20.266667 37.12-20.266666 53.034666 123.733333 64 145.066667 110.933333 217.6 157.866667z m39.296-302.250667L612.693333 296.021333l-148.266666 74.112-6.442667 32.298667L443.733333 524.8l195.584 107.050667 95.445334-63.701334z" /></svg>